<?xml version="1.0" encoding="utf-8"?>
<!-- Generator: Adobe Illustrator 23.0.4, SVG Export Plug-In . SVG Version: 6.00 Build 0)  -->
<svg version="1.1" id="Layer_1" xmlns="http://www.w3.org/2000/svg" xmlns:xlink="http://www.w3.org/1999/xlink" x="0px" y="0px"
	 viewBox="0 0 928 304" style="enable-background:new 0 0 928 304;" xml:space="preserve">
<style type="text/css">
	.st0{fill-rule:evenodd;clip-rule:evenodd;fill:#FFFFFF;}
	.st1{fill-rule:evenodd;clip-rule:evenodd;fill:#049BF7;}
	.st2{fill:#FFFFFF;}
</style>
<g>
	<path class="st0" d="M89.5,183.7c3.5,7.1,8.1,13.7,13.9,19.4c6.8,6.8,14.8,12.1,23.4,15.7c8.7,3.6,18,5.5,27.7,5.5
		c9.6,0,19-1.9,27.7-5.5c8.7-3.6,16.6-8.9,23.4-15.7c5.8-5.8,10.4-12.3,13.9-19.4c3.5-7.1,5.7-14.8,6.7-22.7
		c0.2-1.5,0.3-2.9,0.4-4.4c0.1-1.5,0.1-3,0.1-4.5c0-1.5,0-3-0.1-4.5c-0.1-1.5-0.2-3-0.4-4.4h-9h-9h-26.8h-26.8v8.9v8.9h26.8h26.8
		c-2.1,12.9-8.8,24.2-18.3,32.4c-9.5,8.1-21.9,13.1-35.3,13.1c-13.5,0-25.8-4.9-35.3-13.1c-9.5-8.1-16.2-19.5-18.3-32.4
		c-0.2-1.5-0.4-2.9-0.5-4.4c-0.1-1.5-0.2-3-0.2-4.5c0-1.5,0.1-3,0.2-4.5c0.1-1.5,0.3-3,0.5-4.4c2.1-12.9,8.8-24.2,18.3-32.4
		c9.5-8.1,21.9-13.1,35.3-13.1c13.5,0,25.8,4.9,35.3,13.1c1.1,0.9,2.1,1.9,3.1,2.9l12.6-12.6c-6.8-6.8-14.8-12.1-23.4-15.7
		c-8.7-3.6-18-5.5-27.7-5.5c-9.6,0-19,1.9-27.7,5.5c-8.7,3.6-16.6,8.9-23.4,15.7c-5.8,5.8-10.4,12.3-13.9,19.4
		c-3.5,7.1-5.7,14.8-6.7,22.7h-9.2h-9.2c1-10.4,3.8-20.4,8.2-29.7c4.4-9.3,10.4-17.9,17.9-25.4c8.6-8.5,18.5-15.2,29.4-19.7
		c10.9-4.5,22.6-6.8,34.7-6.8c12.1,0,23.8,2.4,34.7,6.8c10.9,4.5,20.8,11.1,29.4,19.7l12.6-12.6c-5-5-10.4-9.4-16.1-13.3
		c-5.8-3.9-11.9-7.2-18.3-9.9c-6.7-2.8-13.6-5-20.6-6.4c-7.1-1.4-14.3-2.1-21.6-2.1s-14.5,0.7-21.6,2.1c-7.1,1.4-13.9,3.6-20.6,6.4
		c-6.5,2.7-12.6,6-18.3,9.9c-5.8,3.9-11.1,8.3-16.1,13.3c-5,5-9.4,10.4-13.3,16.1c-3.9,5.8-7.2,11.9-9.9,18.3
		c-2.2,5.3-4.1,10.8-5.4,16.3c-1.4,5.6-2.3,11.2-2.7,16.9c-0.1,1.5-0.2,3-0.3,4.4c-0.1,1.5-0.1,3-0.1,4.5s0,3,0.1,4.5
		c0.1,1.5,0.2,3,0.3,4.4h9h9h9.2h9.2C83.7,168.9,86,176.6,89.5,183.7z"/>
	<path class="st1" d="M262.5,143.2h-9h-9c0.1,1.5,0.3,3,0.3,4.4c0.1,1.5,0.1,3,0.1,4.5c0,1.5,0,3-0.1,4.5c-0.1,1.5-0.2,3-0.3,4.4
		c-1,10.4-3.8,20.4-8.2,29.7c-4.4,9.3-10.4,17.9-17.9,25.4c-8.6,8.5-18.5,15.2-29.4,19.7c-10.9,4.5-22.6,6.8-34.7,6.8
		c-12.1,0-23.8-2.4-34.7-6.8c-10.9-4.5-20.8-11.1-29.4-19.7l-12.6,12.6c5,5,10.4,9.4,16.1,13.3c5.8,3.9,11.9,7.2,18.3,9.9
		c6.7,2.8,13.6,5,20.6,6.4c7.1,1.4,14.3,2.1,21.6,2.1c7.3,0,14.5-0.7,21.6-2.1c7.1-1.4,13.9-3.6,20.6-6.4c6.5-2.7,12.6-6,18.3-9.9
		c5.8-3.9,11.1-8.3,16.1-13.3c5-5,9.4-10.4,13.3-16.1c3.9-5.8,7.2-11.9,9.9-18.3c2.2-5.3,4.1-10.8,5.4-16.3
		c1.4-5.6,2.3-11.2,2.7-16.9c0.1-1.5,0.2-3,0.3-4.4c0.1-1.5,0.1-3,0.1-4.5s0-3-0.1-4.5C262.7,146.1,262.6,144.6,262.5,143.2z"/>
</g>
<g>
	<polygon class="st0" points="376.6,141.4 376.6,129.2 333,129.2 333,141.7 359.2,141.7 332.9,177 332.9,189.3 376.9,189.3 
		376.9,176.8 350.1,176.8 	"/>
	<path class="st0" d="M416.2,108.7c-22.3,0-29.3,17.1-29.3,40c0,23.1,6.9,40.4,29.3,40.4s29.3-17.3,29.3-40.4
		C445.5,125.8,438.6,108.7,416.2,108.7z M416.2,175c-12.8,0-14.3-12.2-14.3-26.3c0-13.6,1.5-25.9,14.3-25.9
		c12.8,0,14.3,12.4,14.3,25.9C430.5,162.8,429,175,416.2,175z"/>
	<path class="st0" d="M583.1,138.5v-9.3h-15.2v60.1h15.2v-29.9c0-11.6,5.4-15.1,14.4-15.1h4v-15.9
		C593.2,128.3,586.9,132.3,583.1,138.5z"/>
	<path class="st0" d="M655.1,137.8c-3.6-5-10.2-9.5-19.9-9.5c-15.3,0-27.4,12-27.4,30.8s12.2,31.2,27.3,31.2c9.5,0,16.4-4.6,20-9.8
		v8.8h15.3v-60.1h-15.3V137.8z M639.2,176.9c-8.1,0-15.8-6.5-15.8-17.9c0-11.4,7.7-17.5,15.8-17.5c8.4,0,15.9,6.3,15.9,17.7
		C655.1,170.6,647.5,176.9,639.2,176.9z"/>
	<polygon class="st0" points="710.3,175.3 695.1,129.2 678.9,129.2 701,189.3 719.4,189.3 741.7,129.2 725.5,129.2 	"/>
	<rect x="750.2" y="129.2" class="st0" width="15.2" height="60.1"/>
	<path class="st0" d="M757.9,104.2c-5.4,0-9.3,3.9-9.3,8.9c0,5,3.9,8.9,9.3,8.9c5.3,0,9.3-3.9,9.3-8.9
		C767.3,108.1,763.3,104.2,757.9,104.2z"/>
	<path class="st0" d="M798.1,114.3h-15.3v14.9h-7.2v12.5h7.2v29c0,13.8,7.7,18.7,19.2,18.7h9.5v-12.8h-7.1c-4.8,0-6.4-1.7-6.4-5.7
		v-29.1h13.5v-12.5h-13.5V114.3z"/>
	<polygon class="st0" points="863.8,129.2 848.1,171.2 832.6,129.2 815.6,129.2 839.6,187.8 826.6,217.7 842.8,217.7 880,129.2 	"/>
	<path class="st2" d="M515.6,158.8h26c-2.3,10.7-9.8,17.5-21.5,17.5c-14.1,0-23.7-9.5-23.7-25c0-15.1,9.4-24.7,23-24.7
		c7.7,0,13.7,3.1,17.3,9l11.2-11.2c-6.7-7.6-16.8-11.7-28.5-11.7c-21.9,0-38.6,16.1-38.6,38.7s16.7,38.6,38.7,38.6
		c20.2,0,34-14.1,37-29.5v-13.2h-41V158.8z"/>
</g>
</svg>
